# xmcd
#
# Track frame offsets:
#	150
#	23810
#	42720
#	56655
#	80897
#	94542
#	109150
#	127550
#	157832
#	171870
#	187550
#	216447
#	236734
#
# Disc length: 3485 seconds
#
# Revision: 0
# Processed by: cddbd v1.4PL0 Copyright (c) Steve Scherf et al.
# Submitted via: dBpowerAMP V4.0
#
DISCID=a40d9b0d
DTITLE=Jovink en de Voederbietels - The Hitmachine goes on
DYEAR=1900
DGENRE=
TTITLE0=An de Kant
TTITLE1=Schoap an't drieten
TTITLE2=Brommers kieken
TTITLE3=Niet Schreeuwen
TTITLE4=Begin 'n rock and roll band
TTITLE5=Inteeltblues
TTITLE6='t Blif 'n heel gesappel
TTITLE7=Eerlijk =Eerlijk
TTITLE8=Alweer gewonnen
TTITLE9=Rotcafé
TTITLE10=Buffel Henkie
TTITLE11=Rock and Lol
TTITLE12=Rikie Solo
EXTD=
EXTT0=
EXTT1=
EXTT2=
EXTT3=
EXTT4=
EXTT5=
EXTT6=
EXTT7=
EXTT8=
EXTT9=
EXTT10=
EXTT11=
EXTT12=
PLAYORDER=
